<svg xmlns="http://www.w3.org/2000/svg" width="215" height="300"><polygon fill="#fff" points="210.42,2.122 2.261,2.122 2.261,297.894 211.947,297.894 211.947,2.122"/><rect x="7.743" y="7.68" width="198.757" height="284.773"/><rect x="18.237" y="54.584" fill="#fff" width="177.629" height="176.647"/><path d="M212.7,0H0v300h214.2V0H212.7z M211.1,297.1H3.1V2.9h208.1V297.1z"/><path fill="#fff" d="M27.3,248.8c-0,0.3-0.1,0.6-0.1,0.9c-0.2,2.9-1.2,5.1-4.6,5.1c-5.1,0-5.4-3.1-5.4-7.3v-2.2c0.1-4.1,0.5-7,5.4-7c2.7,0,4.3,1.4,4.5,4.1c0.1,0.4,0.1,0.8,0.1,1.2h-3c-0.1-1-0-2.9-1.5-2.9c-2.4,0-2.2,2.8-2.2,4v4.4c0,1.3,0.1,3.4,2.2,3.4c1.7,0,1.5-2.6,1.5-3.6H27.3z"/><path fill="#fff" d="M29.6,245.2c0.1-4.1,0.5-7,5.4-7c4.9,0,5.2,3,5.4,7v2.2c0,4.2-0.3,7.3-5.4,7.3c-5,0-5.4-3.1-5.4-7.3V245.2z M32.7,249c0,1.3,0.1,3.4,2.2,3.4c2.2,0,2.2-2.2,2.2-3.7v-4c0-1.3,0.1-4.1-2.2-4.1c-2.4,0-2.2,2.8-2.2,4V249z"/><path fill="#fff" d="M50.5,238.6h3.1v15.8H50.4l-2.4-5.6c-0.8-1.9-1.5-3.8-2.2-6.3h-0c0.1,1.3,0.2,2.9,0.3,4.5c0.1,1.6,0.2,3.1,0.2,4.4v3H43.2v-15.8h3.2l2.4,5.8c0.8,1.8,1.5,3.7,2.2,6.3h0c-0.1-1.4-0.2-3-0.3-4.5c-0.1-1.5-0.1-3-0.1-4.5V238.6z"/><polygon fill="#fff" points="55.432,238.604 65.668,238.604 65.668,240.928 62.101,240.928 62.101,254.403  59.018,254.403 59.018,240.928 55.432,240.928"/><polygon fill="#fff" points="67.419,254.403 67.419,238.604 76.071,238.604 76.071,240.928 70.498,240.928  70.498,244.903 75.641,244.903 75.641,247.228 70.498,247.228 70.498,252.087 76.071,252.087 76.071,254.403"/><path fill="#fff" d="M85.8,238.6h3.1v15.8h-3.2l-2.4-5.6c-0.8-1.9-1.5-3.8-2.2-6.3h-0c0.1,1.3,0.2,2.9,0.3,4.5c0.1,1.6,0.2,3.1,0.2,4.4v3h-3.1v-15.8h3.2l2.4,5.8c0.8,1.8,1.4,3.7,2.2,6.3h0c-0.1-1.4-0.2-3-0.3-4.5c-0.1-1.5-0.2-3-0.2-4.5V238.6z"/><polygon fill="#fff" points="90.772,238.604 101.008,238.604 101.008,240.928 97.424,240.928 97.424,254.403  94.358,254.403 94.358,240.928 90.772,240.928"/><path fill="#fff" d="M111.4,247.6v6.8h-3.1v-15.8h5.8c2.7,0,4.7,0.9,4.7,3.8c0,1.7-0.4,3.5-2.5,3.8v0.1c1.8,0.2,2.4,1.3,2.4,2.9c0,0.6-0.1,4.5,0.7,5v0.3h-3.4c-0.4-1-0.3-3-0.3-4c-0-1,0-2.3-1.1-2.6c-0.8-0.2-1.7-0.2-2.6-0.2H111.4z  M111.4,245.3h2.4c1-0.1,1.8-0.7,1.8-2.3c0-1.8-0.8-2.1-1.9-2.1h-2.3V245.3z"/><path fill="#fff" d="M120.4,254.4l3.9-15.8h4.1l3.7,15.8h-3.3l-0.8-4h-3.6l-0.8,4H120.4z M125,248.1h2.6l-0.8-4.5c-0.1-0.7-0.2-1.4-0.3-2.2c-0-0.4-0.1-0.7-0.1-1.1h-0c-0.1,0.3-0.1,0.7-0.1,1.1c-0.1,0.7-0.2,1.5-0.3,2.2L125,248.1z"/><polygon fill="#fff" points="132.819,238.604 143.06,238.604 143.06,240.928 139.488,240.928  139.488,254.403 136.404,254.403 136.404,240.928 132.819,240.928"/><polygon fill="#fff" points="144.823,254.403 144.823,238.604 153.462,238.604 153.462,240.928  147.904,240.928 147.904,244.903 153.015,244.903 153.015,247.228 147.904,247.228 147.904,252.087 153.462,252.087  153.462,254.403"/><path fill="#fff" d="M156,254.4v-15.8h6.4c0.8,0,2.2,0.3,3.2,1.8c0.7,1.1,0.9,2.9,0.9,5.5c0,3.1,0,6.7-2.5,8.2c-0.7,0.4-1.5,0.4-2.3,0.4H156z  M160.4,252.1c2.7,0,2.9-1.4,2.9-6c0-3.8-0.4-5.2-2.2-5.2h-2v11.2H160.4z"/><path fill="#fff" d="M174.7,254.4v-15.8h5c1.3,0,2.6,0.1,3.5,1.2c0.7,0.9,0.8,1.8,0.8,2.8c0,1.4-0.3,2.7-2,3.3v0c1.7,0.2,2.4,1.6,2.4,3.7c0,0.6-0,1.3-0.2,1.9c-0.7,2-1.8,2.8-4,2.8H174.7z M178.4,252.1c0.6,0,1.3,0.1,1.9-0.2c0.8-0.4,0.9-1.4,0.9-2.2c0-1.7-0.3-2.4-2.2-2.4h-1.2v4.8H178.4z  M178.3,245c0.7,0,1.7,0,2.2-0.6c0.3-0.4,0.3-0.9,0.3-1.7c0-1.2-0.3-1.8-1.7-1.8h-1.4v4.1H178.3z"/><path fill="#fff" d="M190.8,242.7c0.3,0.8,0.6,1.6,0.7,2.4h0.1c0.2-1.2,0.6-2.1,1-3l1.4-3.6h3.4l-4.3,9.1v6.7h-3.1v-6.7l-4.3-9.1h3.3L190.8,242.7z"/><polygon fill="#fff" points="17.821,282.422 17.821,259.065 50.977,259.065 50.977,264.533 31.14,264.533  31.14,267.866 47.928,267.866 47.928,273.314 31.14,273.314 31.14,276.974 51.75,276.974 51.75,282.422"/><path fill="#fff" d="M85.1,265.9c-0.2-0.8-1-1.3-1.9-1.6c-0.9-0.3-2.1-0.4-3.4-0.4c-2.9,0-4.2,0.5-4.2,1.4c0,3.5,23.4,1.3,23.4,9.8c0,5.4-7.9,8-19,8c-10.7,0-17.7-3.6-18-7.8h12.8c0.3,0.8,1.1,1.5,2.2,1.8c1.1,0.4,2.5,0.6,3.8,0.6c3.3,0,5.5-0.6,5.5-1.7c0-3.5-23.4-1.1-23.4-10c0-5,7.5-7.5,17.6-7.5c11.3,0,16.4,3.3,17.4,7.4H85.1z"/><path fill="#fff" d="M123.2,274.3v8.1h-13.3v-23.4h19.2c13.5,0,18,2.1,18,6.7c0,2.7-2.1,4.9-6.8,5.7c4.3,0.9,6.9,1.5,6.9,6.2c0,3-0.2,4.1,1.4,4.1v0.7h-13.5c-0.3-0.5-0.7-2-0.7-4.1c0-3.1-0.9-4-7.1-4H123.2z M123.2,269.2h5.2c4.1,0,6.3-0.6,6.3-2.2c0-1.6-2.2-2.4-5.4-2.4h-6.2V269.2z"/><path fill="#fff" d="M160.1,282.4v-23.4h19.4c9.2,0,16.4,1.3,16.4,5.9c0,2.4-2.7,4.2-5.3,5.1c4.4,0.7,6.8,2.8,6.8,5.4c0,5.2-6.9,7-17.5,7H160.1z M173.4,272.7v4.3h5.8c3.3,0,5.8-0.4,5.8-2.1c0-2-3.1-2.2-7.3-2.2H173.4z M173.4,264.5v3.9h5.5c2.6,0,4.6-0.7,4.6-2c0-1.8-2.6-1.9-5.4-1.9H173.4z"/><path d="M23.5,70.4c0-5.2,4.6-9.3,10.3-9.3c5.7,0,10.2,4.2,10.2,9.3c0,5.2-4.5,9.4-10.2,9.4C28,79.8,23.5,75.6,23.5,70.4M42.1,70.4c0-4.2-3.7-7.7-8.4-7.7c-4.7,0-8.5,3.4-8.5,7.7c0,4.3,3.8,7.7,8.5,7.7C38.4,78.1,42.1,74.7,42.1,70.4M31.6,71v4.7h-1.9v-11h3.9c2.2,0,4.5,0.6,4.5,3.1c0,1.3-0.8,2.3-2.4,2.6v0c1.6,0.3,1.8,1,2,2.2c0.2,1,0.3,2.2,0.7,3.2h-2.4c-0.1-0.6-0.3-1.3-0.4-2c-0.1-0.9-0.1-1.8-0.7-2.3c-0.5-0.4-1.1-0.4-1.8-0.4H31.6M33.6,69.3c1.8-0.1,2.2-0.8,2.2-1.6c0-0.8-0.4-1.3-1.9-1.3h-2.3v2.8H33.6z"/><polygon fill="#fff" points="181.634,32.504 188.564,32.504 188.564,24.728 193.072,24.728 193.072,32.504  199.961,32.504 199.961,36.88 193.072,36.88 193.072,44.616 188.564,44.616 188.564,36.88 181.634,36.88"/><polygon fill="#fff" points="166.399,17.146 180.149,17.146 180.149,22.377 173.933,44.616 168.179,44.616  175.179,21.395 166.399,21.395"/><path fill="#fff" d="M151.7,21.4c1.8-1.1,3.6-2.4,4.9-4.2h4.9v27.5h-5.5V23.5c-1.3,1.2-2.8,2.2-4.3,3.1V21.4z"/><polygon fill="#fff" points="130.411,40.247 130.411,31.931 138.62,31.931 138.62,27.564 130.411,27.564  130.411,20.563 139.317,20.563 139.317,16.178 124.892,16.178 124.892,44.616 139.626,44.616 139.626,40.247"/><path fill="#fff" d="M116.8,30.7v-0.1c3.6-0.6,4.9-3.3,4.9-7c0-4.8-2.4-7.4-6.2-7.4h-10.2v28.4h5.5V32.8h1.4c4.3,0,4,2.9,4,6.3c0,1.9-0.1,3.8,0.6,5.5h5.4c-0.5-1.2-0.6-6.6-0.6-8.4C121.6,31.1,118,30.8,116.8,30.7M113.3,28.5h-2.4v-7.9h2.4c1.8,0,2.8,1,2.8,3.7C116.1,26.1,115.5,28.5,113.3,28.5"/><path fill="#fff" d="M96.3,36c0,3.1-1.1,4.9-3.5,4.9c-2,0-3.4-1.3-3.4-4.9V16.2H83.9V36.4c0,5.3,2.9,8.7,9,8.7c6.7,0,9-4.5,9-8.7V16.2h-5.5V36z"/><polygon fill="#fff" points="64.492,20.918 70.649,20.918 70.649,44.616 76.169,44.616 76.169,20.918  82.327,20.918 82.327,16.178 64.492,16.178"/><path fill="#fff" d="M52.6,16.2L45.3,44.6h5.5l1.5-6.3h7.5l1.5,6.3h5.8l-7.2-28.4H52.6z M53.3,33.9l2.5-12.2h0.1l2.7,12.2H53.3z"/><polygon fill="#fff" points="30.716,35.502 30.642,35.502 26.501,16.178 17.597,16.178 17.597,44.616  22.988,44.616 22.988,22.711 23.06,22.711 27.906,44.616 33.166,44.616 38.277,22.711 38.343,22.711 38.343,44.616 43.713,44.616  43.713,16.178 35.109,16.178"/><polygon points="24.23,94.498 79.865,79.678 111.61,153.495 111.891,153.402 102.297,73.733 157.921,58.939  192.667,187.797 158.769,196.801 133.925,104.669 133.646,104.768 144.179,200.671 107.487,210.453 68.338,122.157  68.072,122.227 92.87,214.359 58.975,223.35"/></svg>